P2
15 15
11
11 11 11 11 11 11 11 0 0 0 0 11 11 11 11
11 11 11 11 11 11 0 11 11 11 11 0 11 11 11
11 11 11 11 11 0 11 11 11 11 11 11 0 11 11
11 11 11 11 11 0 11 11 11 11 8 11 0 0 0
11 11 11 11 11 0 11 11 11 11 11 11 5 5 0
11 11 11 11 11 0 0 11 11 11 11 11 5 0 0
0 0 11 11 11 11 0 0 11 11 11 0 0 0 11
0 7 0 0 11 11 11 0 11 11 11 0 11 11 11
0 7 11 11 0 0 0 11 11 11 11 0 11 11 11
0 7 11 11 11 11 11 11 11 11 11 11 0 11 11
0 7 11 11 11 11 11 11 11 11 11 11 0 11 11
11 0 11 11 11 11 11 11 11 11 11 11 0 11 11
11 0 0 11 11 11 11 11 11 11 11 0 11 11 11   
11 11 0 0 7 7 7 7 7 0 0 11 11 11 11
11 11 11 11 0 0 0 0 0 0 11 11 11 11 11
